<svg xmlns="http://www.w3.org/2000/svg" xmlns:xlink="http://www.w3.org/1999/xlink" viewBox="0 0 64 64"><defs><linearGradient xlink:href="#a" id="b" x1="26.9" x2="26.9" y1="17.2" y2="50.6" gradientUnits="userSpaceOnUse"/></defs><linearGradient id="a" x1="26.9" x2="26.9" y1="17.2" y2="50.6" gradientUnits="userSpaceOnUse"><stop offset="0" stop-color="#59f"/><stop offset="1" stop-color="#2a7fff"/></linearGradient><path fill="url(#b)" stroke="#00002b" stroke-linejoin="round" stroke-width="6" d="M60.8 32a28.8 28.8 0 1 1-57.6 0 28.8 28.8 0 1 1 57.6 0z"/><path fill="url(#a)" stroke="#87aade" stroke-linejoin="round" stroke-width="4" d="M60.8 32a28.8 28.8 0 1 1-57.6 0 28.8 28.8 0 1 1 57.6 0z"/><path fill="none" stroke="#fff" stroke-linejoin="round" stroke-width="4" d="M57.2 32a25.2 25.2 0 0 1-50.4 0A25.2 25.2 0 0 1 32 7a25.2 25.2 0 0 1 25.2 25z"/><g fill="#fff"><path d="M35.6 48h-7.2V26.6h7.2z"/><circle cx="32" cy="19.7" r="3.6"/></g></svg>