<svg xmlns="http://www.w3.org/2000/svg" viewBox="0 0 64 64"><path fill="#141" stroke="#117" stroke-linejoin="round" stroke-width="5" d="M28.2 3.1v4.6A24.1 24.1 0 0 0 7.4 32a24.1 24.1 0 0 0 23.8 24.4v.1h.2l4.4 4.5v-4.6A24.1 24.1 0 0 0 56.6 32 24.1 24.1 0 0 0 32.8 7.7v-.1h-.2zm0 15.4v7l6.8-7a13.8 13.8 0 0 1 .8 27v-7l-6.9 7a13.8 13.8 0 0 1-11.2-13.6c0-6.5 4.5-12 10.5-13.4z"/><path fill="#59f" d="M31.2 7.5h1.5l-1.5 6.9V18a13.8 13.8 0 0 0-13.5 13.8 13.8 13.8 0 0 0 13.5 13.8l1.5-.2-1.5 10.7A24 24 0 0 1 7.4 32 24.1 24.1 0 0 1 31.2 7.5z"/><path fill="none" stroke="#117" stroke-width="5" d="M35.9 38.6 24.7 49.7l11.2 11.2"/><g fill="#0055d4"><path d="M32.7 56.5h-1.4l1.4-6.9v-3.7a13.8 13.8 0 0 0 0-27.6l-1.5.1 1.5-10.7c13.4.2 24 11.1 23.9 24.4a24.1 24.1 0 0 1-23.9 24.4z"/><path d="M35.8 60.8V38.6L24.6 49.7z"/></g><path fill="none" stroke="#117" stroke-width="5" d="m28.1 25.4 11.2-11.1L28 3"/><path fill="#59f" d="M28.2 3.1v22.3l11.2-11.1z"/></svg>